# xmcd
#
# Track frame offsets:
#	150
#	12038
#	25862
#	42736
#	57793
#	72499
#	91269
#	102557
#	122364
#	133602
#	148874
#	162074
#	174275
#	190549
#	208800
#	220413
#
# Disc length: 3149 seconds
#
# Revision: 2
# Processed by: cddbd v1.5.1PL0 Copyright (c) Steve Scherf et al.
# Submitted via: audiograbber 1.83.01
#
DISCID=e10c4b10
DTITLE=Tommy Allen - The Rigft Combination
DYEAR=2003
DGENRE=Country
TTITLE0=Blame It On The Blonde
TTITLE1=Love Is Now
TTITLE2=Blue Bonnet Blues
TTITLE3=Nickel Lemonade
TTITLE4=Another Poor Day
TTITLE5=Class Reunion
TTITLE6=Holding a Queen
TTITLE7=Passion Or The Pain
TTITLE8=Some Things Aren't Meant To Be
TTITLE9=Who's Missing  You Now
TTITLE10=Give Me Time To Drink It Over
TTITLE11=Over The Hill
TTITLE12=Overtime Saloon
TTITLE13=Neon Roses
TTITLE14=One In A Million
TTITLE15=What Am I Gonna'  Do
EXTD=
EXTT0=
EXTT1=
EXTT2=
EXTT3=
EXTT4=
EXTT5=
EXTT6=
EXTT7=
EXTT8=
EXTT9=
EXTT10=
EXTT11=
EXTT12=
EXTT13=
EXTT14=
EXTT15=
PLAYORDER=
